<?xml version="1.0" encoding="utf-8"?>
<!-- Generator: Adobe Illustrator 23.0.1, SVG Export Plug-In . SVG Version: 6.00 Build 0)  -->
<svg version="1.1" id="Layer_1" xmlns="http://www.w3.org/2000/svg" xmlns:xlink="http://www.w3.org/1999/xlink" x="0px" y="0px"
	 viewBox="0 0 113.7 114.5" style="enable-background:new 0 0 113.7 114.5;" xml:space="preserve">
<style type="text/css">
	.st0{fill:url(#SVGID_1_);}
	.st1{fill:url(#SVGID_2_);}
	.st2{fill:url(#SVGID_3_);}
</style>
<g>
	<linearGradient id="SVGID_1_" gradientUnits="userSpaceOnUse" x1="100.1132" y1="17.2948" x2="106.2464" y2="2.9306">
		<stop  offset="0" style="stop-color:#3B57A7"/>
		<stop  offset="1" style="stop-color:#2D2D84"/>
	</linearGradient>
	<path class="st0" d="M111.2,5.2c-0.3-0.4-1-0.6-1.8-0.6c-0.4,0-0.9,0.1-1.2,0.3l-16.7,8.7c0.1,0,0.1-0.1,0.2-0.1H112V6L111.2,5.2z"
		/>
	<g>
		<linearGradient id="SVGID_2_" gradientUnits="userSpaceOnUse" x1="8.189" y1="113.8993" x2="18.2127" y2="90.4238">
			<stop  offset="0" style="stop-color:#3B57A7"/>
			<stop  offset="1" style="stop-color:#2D2D84"/>
		</linearGradient>
		<path class="st1" d="M4.6,108.8c-1.2,2.3-0.6,3.4,0,3.6c0,0,9.9,0,9.9,0l-0.1-23.5C12.8,91.9,4.6,108.8,4.6,108.8z"/>
		
			<linearGradient id="SVGID_3_" gradientUnits="userSpaceOnUse" x1="32.8493" y1="111.6645" x2="76.1489" y2="10.2566" gradientTransform="matrix(1 0 0 -1 0 113.7323)">
			<stop  offset="0" style="stop-color:#3B57A7"/>
			<stop  offset="1" style="stop-color:#2D2D84"/>
		</linearGradient>
		<path class="st2" d="M107.4,2.1c-12.2,0-44.6,0-44.6,0c-3.5,0-6.8,1.4-9.2,3.8L5.5,54c-2.4,2.4-3.8,5.7-3.8,9.2c0,0,0,37.8,0,47.1
			c0,1.1,0.9,2.1,2.1,2.1h1.8c0,0-0.2,0-0.2,0c-2.1-0.4-1.2-2.4-0.3-3.3L22,92l0,0c23.1-23.1,46.3-46.3,69.4-69.4l16.7-17.5
			c0.3-0.3,0.8-0.5,1.2-0.6c0.8-0.1,1.5,0.5,1.8,1.2l0.8,1.6V6.7C112,4.2,109.9,2.1,107.4,2.1z"/>
	</g>
</g>
</svg>
