<?xml version="1.0" encoding="utf-8"?>
<!-- Generator: Adobe Illustrator 23.0.1, SVG Export Plug-In . SVG Version: 6.00 Build 0)  -->
<svg version="1.1" id="Layer_1" xmlns="http://www.w3.org/2000/svg" xmlns:xlink="http://www.w3.org/1999/xlink" x="0px" y="0px"
	 viewBox="0 0 113.67 114.46" style="enable-background:new 0 0 113.67 114.46;" xml:space="preserve">
<style type="text/css">
	.st0{fill:#98722B;}
	.st1{fill:url(#SVGID_1_);}
</style>
<g>
	<path class="st0" d="M111.21,5.19c-0.32-0.36-1.03-0.63-1.82-0.6c-0.45,0.02-0.89,0.11-1.23,0.29l-16.7,8.72
		c0.06-0.03,0.12-0.06,0.19-0.09h20.31V6L111.21,5.19z"/>
	<g>
		<path class="st0" d="M4.64,108.81c-1.16,2.3-0.61,3.44,0,3.56c0.01,0,9.94,0.01,9.94,0.01l-0.1-23.55
			C12.77,91.89,4.64,108.81,4.64,108.81z"/>
		<linearGradient id="SVGID_1_" gradientUnits="userSpaceOnUse" x1="46.1536" y1="33.2365" x2="89.4532" y2="134.6444">
			<stop  offset="0" style="stop-color:#E4A424"/>
			<stop  offset="1" style="stop-color:#885A24"/>
		</linearGradient>
		<path class="st1" d="M107.36,2.11C95.13,2.1,62.79,2.09,62.79,2.09c-3.45,0-6.75,1.37-9.19,3.81L5.51,53.99
			c-2.44,2.44-3.81,5.74-3.81,9.19c0,0,0,37.83,0.01,47.14c0,1.13,0.92,2.05,2.06,2.05h1.8c-0.02,0-0.21-0.01-0.23-0.01
			c-2.11-0.43-1.16-2.38-0.31-3.27l17.01-17.07l0.02,0.01c23.14-23.14,46.28-46.28,69.42-69.42l16.7-17.45
			c0.34-0.35,0.78-0.54,1.23-0.58c0.79-0.06,1.5,0.48,1.82,1.2l0.75,1.62V6.73C111.97,4.18,109.91,2.11,107.36,2.11z"/>
	</g>
</g>
</svg>
