<?xml version="1.0" encoding="utf-8"?>
<!-- Generator: Adobe Illustrator 23.0.1, SVG Export Plug-In . SVG Version: 6.00 Build 0)  -->
<svg version="1.1" xmlns="http://www.w3.org/2000/svg" xmlns:xlink="http://www.w3.org/1999/xlink" x="0px" y="0px"
	 viewBox="0 0 1000 1000" style="enable-background:new 0 0 1000 1000;" xml:space="preserve">
<style type="text/css">
	.st0{fill:#608BFF;}
	.st1{fill:#B01D10;stroke:#FFFFFF;stroke-width:4;stroke-miterlimit:10;}
	.st2{fill:#FFFFFF;stroke:#222223;stroke-width:19.533;stroke-linecap:round;stroke-linejoin:round;stroke-miterlimit:10;}
</style>
<g id="Background">
</g>
<g id="Graphic_Elements">
	<circle class="st0" cx="500" cy="500" r="465.2"/>
	<path class="st1" d="M745.8,303.9L745.8,303.9c0.1-1.7,0.1-3.4,0.1-5.1c0-68.4-57.7-127.6-128.8-127.6c-52,0-96.8,33.5-117.1,76.1
		h0c-20.3-42.7-65.1-76.1-117.1-76.1c-71.1,0-128.8,59.3-128.8,127.6c0,1.7,0.1,3.4,0.1,5.1h0c0,0-7.3,81.2,83.1,169.9
		c41.1,41.2,87.1,80.3,162.7,141.8c75.6-61.5,121.6-100.6,162.7-141.8C753.1,385.2,745.8,303.9,745.8,303.9z"/>
	<g>
		<path class="st2" d="M186.1,608.9c0,0-26.3-52.6-43.2-66.7c-16.9-14.1-9.4-33.8,21.6-29.1c31,4.7,73.3,60.1,94,85.5
			c20.7,25.4,44.2,27.3,44.2,27.3c76.1,11.3,98.5,16.7,140.1,82.4c53.5,84.6,13.2,124-43.2,120.3c-56.4-3.8-86.4-31.9-86.4-31.9
			s-80-50.5-111-64.6c-31-14.1-99.6-157.9-115.6-196.4c-16-38.5-3.8-175.7,18.8-174.8c22.6,0.9,34.8,14.1,34.8,63.9
			c0,49.8,4.7,73.3,4.7,73.3"/>
		<path class="st2" d="M813.9,608.9c0,0,26.3-52.6,43.2-66.7c16.9-14.1,9.4-33.8-21.6-29.1c-31,4.7-73.3,60.1-94,85.5
			c-20.7,25.4-44.2,27.3-44.2,27.3c-76.1,11.3-98.5,16.7-140.1,82.4c-53.5,84.6-13.2,124,43.2,120.3c56.4-3.8,86.4-31.9,86.4-31.9
			s80-50.5,111-64.6c31-14.1,99.6-157.9,115.6-196.4c16-38.5,3.8-175.7-18.8-174.8c-22.6,0.9-34.8,14.1-34.8,63.9
			c0,49.8-4.7,73.3-4.7,73.3"/>
	</g>
</g>
</svg>
